# xmcd
#
# Track frame offsets: 
#        150
#        20390
#        43640
#        60652
#        82763
#        99270
#        113933
#        129694
#        153039
#        171282
#        193864
#        210472
#
# Disc length: 3011 seconds
#
# Revision: 0
# Processed by: cddbd v1.5.1PL0 Copyright (c) Steve Scherf et al.
# Submitted via: ExactAudioCopy v0.95a3
#
DISCID=930bc10c
DTITLE=Various Artist - Табачный Дым
DYEAR=1996
DGENRE=Chanson
TTITLE0=Слава Медяник - Табачный Дым
TTITLE1=Эрика Рокк - Архангел
TTITLE2=Илья Дзлиери - Ночь Любви
TTITLE3=Марина Жданова - От Тебя До Меня
TTITLE4=Валерий Моисеев - Клава-Клоунесса
TTITLE5=Валерий Моисеев - Алка Морева
TTITLE6=Жанна Волкова - Граф Монте-Кристо
TTITLE7=Жанна Волкова - Прости!
TTITLE8=Сёстры Джой - Заграница
TTITLE9=Михаил Шуфутинский - Женщины, Которых Мы Любим
TTITLE10=Люба Успенская - Я Так Хочу Тебя Забыть
TTITLE11=Илья Резник - Не Учите Меня Жить
EXTD=
EXTT0=
EXTT1=
EXTT2=
EXTT3=
EXTT4=
EXTT5=
EXTT6=
EXTT7=
EXTT8=
EXTT9=
EXTT10=
EXTT11=
PLAYORDER=
